<svg xmlns="http://www.w3.org/2000/svg" viewBox="0 0 72 72">
  <g transform="translate(7,14) scale(0.0759)" fill="#ffffff">
    <path d="M94.9707 577.637L669.189 577.637C732.422 577.637 764.404 545.654 764.404 483.398L764.404 93.9941C764.404 31.7383 732.422 0 669.189 0L94.9707 0C31.9824 0 0 31.4941 0 93.9941L0 483.398C0 545.898 31.9824 577.637 94.9707 577.637ZM95.9473 534.18C61.7676 534.18 43.2129 516.113 43.2129 481.201L43.2129 96.1914C43.2129 61.2793 61.7676 43.2129 95.9473 43.2129L668.457 43.2129C701.904 43.2129 721.191 61.2793 721.191 96.1914L721.191 481.201C721.191 516.113 701.904 534.18 668.457 534.18Z"/>
    <path d="M112.793 495.361L651.367 495.361C671.143 495.361 682.129 484.131 682.129 464.111L682.129 113.281C682.129 93.5059 671.143 82.0312 651.367 82.0312L112.793 82.0312C93.2617 82.0312 82.2754 93.5059 82.2754 113.281L82.2754 464.111C82.2754 484.131 93.2617 495.361 112.793 495.361ZM130.371 459.473C121.826 459.473 118.164 455.811 118.164 447.021L118.164 130.371C118.164 121.826 121.826 117.92 130.371 117.92L634.033 117.92C642.578 117.92 646.24 121.826 646.24 130.371L646.24 447.021C646.24 455.811 642.578 459.473 634.033 459.473Z"/>
  </g>
</svg>
